<svg xmlns="http://www.w3.org/2000/svg" viewBox="0 0 64 64" width="64" height="64">
  <defs>
    <linearGradient id="goud" x1="0" y1="0" x2="1" y2="1">
      <stop offset="0" stop-color="#EBD79E"/>
      <stop offset="0.5" stop-color="#C0A063"/>
      <stop offset="1" stop-color="#8C7043"/>
    </linearGradient>
    <linearGradient id="bg" x1="0" y1="0" x2="0" y2="1">
      <stop offset="0" stop-color="#1E2A18"/>
      <stop offset="1" stop-color="#0E120A"/>
    </linearGradient>
  </defs>
  <rect width="64" height="64" rx="13" fill="url(#bg)"/>
  <!-- gouden driehoek-frame (de 'A') -->
  <path d="M32 8 L55 53 L9 53 Z M32 20 L46 49 L18 49 Z" fill="url(#goud)" fill-rule="evenodd"/>
  <!-- groen veld met gouden rand -->
  <path d="M17 49 Q32 41 47 49 L47 53 L17 53 Z" fill="#3C6B32"/>
  <path d="M17 49 Q32 41 47 49" fill="none" stroke="#C0A063" stroke-width="1.4"/>
  <!-- kleine trekker -->
  <g>
    <rect x="27" y="38" width="12" height="6" rx="1.3" fill="#2C5327"/>
    <path d="M29 38 L30.5 33 H35 L36 38 Z" fill="#37662f"/>
    <circle cx="36" cy="45.5" r="4.2" fill="#14180F"/>
    <circle cx="36" cy="45.5" r="1.7" fill="#C0A063"/>
    <circle cx="28.5" cy="46" r="2.6" fill="#14180F"/>
    <circle cx="28.5" cy="46" r="1" fill="#C0A063"/>
  </g>
</svg>
